<svg width="32" height="32" viewBox="0 0 32 32" fill="none" xmlns="http://www.w3.org/2000/svg">
  <rect width="32" height="32" rx="10" fill="#0f0f12"/>
  
  <path d="M7 11.5C7 10.1193 8.11929 9 9.5 9H14V11.5H9.5C9.22386 11.5 9 11.7239 9 12V14C9 14.2761 9.22386 14.5 9.5 14.5H12.5C13.8807 14.5 15 15.6193 15 17V20C15 21.3807 13.8807 22.5 12.5 22.5H8V20H12.5C12.7761 20 13 19.7761 13 19.5V17.5C13 17.2239 12.7761 17 12.5 17H9.5C8.11929 17 7 15.8807 7 14.5V11.5Z" fill="#e8ff47"/>

  <path d="M18 9H23.5C24.8807 9 26 10.1193 26 11.5V14.5C26 15.8807 24.8807 17 23.5 17H20.5V22.5H18V9ZM20.5 11.5V14.5H23.5C23.7761 14.5 24 14.2761 24 14V12C24 11.7239 23.7761 11.5 23.5 11.5H20.5Z" fill="#47ffb8"/>
</svg>
